<?xml version="1.0" encoding="utf-8"?>
<!-- Generator: Adobe Illustrator 16.0.0, SVG Export Plug-In . SVG Version: 6.00 Build 0)  -->
<!DOCTYPE svg PUBLIC "-//W3C//DTD SVG 1.1//EN" "http://www.w3.org/Graphics/SVG/1.1/DTD/svg11.dtd">
<svg version="1.1" id="Layer_1" xmlns="http://www.w3.org/2000/svg" xmlns:xlink="http://www.w3.org/1999/xlink" x="0px" y="0px"
	 width="441.825px" height="52.294px" viewBox="0 -0.001 441.825 52.294" enable-background="new 0 -0.001 441.825 52.294"
	 xml:space="preserve">
<g>
	<path fill="#FFFFFF" d="M19.008,51.232H0V0.827h19.009C51.843,0.971,51.843,51.087,19.008,51.232z M12.888,39.494h6.12
		c16.058,0,16.058-26.93,0-26.93h-6.12V39.494z"/>
	<path fill="#FFFFFF" d="M84.889,12.348c-7.489,0-11.233,0-18.65,0v7.128h17.139c0,3.816,0,7.633,0,11.449H66.239
		c0,2.951,0,5.833,0,8.855c7.417,0,11.737,0,19.298,0c0,3.746,0,7.633,0,11.449c-11.809,0-20.449,0-32.114,0
		c0-16.851,0-33.699,0-50.405c11.665,0,19.658,0,31.467,0C84.889,4.571,84.889,8.46,84.889,12.348z"/>
	<path fill="#FFFFFF" d="M128.088,12.348c-7.489,0-11.233,0-18.65,0v7.128h17.138c0,3.816,0,7.633,0,11.449h-17.138
		c0,2.951,0,5.833,0,8.855c7.417,0,11.737,0,19.298,0c0,3.746,0,7.633,0,11.449c-11.809,0-20.45,0-32.115,0
		c0-16.851,0-33.699,0-50.405c11.665,0,19.658,0,31.468,0C128.088,4.571,128.088,8.46,128.088,12.348z"/>
	<path fill="#FFFFFF" d="M139.82,51.232c0-16.777,0-33.556,0-50.405c7.272,0,14.762,0,22.179,0c24.121,0.072,24.121,37.515,0,37.515
		h-9.289v12.89C148.389,51.232,144.069,51.232,139.82,51.232z M161.926,12.348c-3.024-0.072-6.266,0-9.217,0
		c0,4.104,0,10.297,0,14.401h9.217C168.983,26.75,169.416,12.42,161.926,12.348z"/>
	<path fill="#FFFFFF" d="M232.163,36.182c0-3.528-4.176-4.104-9.217-4.394c-10.945-0.791-18.146-4.535-18.291-15.48
		c-0.432-21.746,38.74-21.746,38.453,0c-4.537,0-7.85,0-12.242,0c0-6.697-13.537-6.121-13.968-0.144
		c-0.288,3.816,3.457,4.609,7.992,5.113c10.01,1.08,19.803,2.375,19.803,14.978c0,21.169-41.042,21.745-40.754-0.433
		c4.319,0,8.063,0,12.457,0C216.394,42.23,232.163,42.086,232.163,36.182z"/>
	<path fill="#FFFFFF" d="M254.12,51.232c0-16.777,0-33.556,0-50.405c7.271,0,14.762,0,22.178,0c24.123,0.072,24.123,37.515,0,37.515
		h-9.287v12.89C262.688,51.232,258.368,51.232,254.12,51.232z M276.225,12.348c-3.023-0.072-6.266,0-9.217,0
		c0,4.104,0,10.297,0,14.401h9.217C283.284,26.75,283.713,12.42,276.225,12.348z"/>
	<path fill="#FFFFFF" d="M330.946,44.895h-19.873l-2.953,6.337h-12.602v-1.873L318.2,0.179h5.545l22.754,49.18v1.873h-12.602
		L330.946,44.895z M320.938,20.556l-5.617,13.25h11.377L320.938,20.556z"/>
	<path fill="#FFFFFF" d="M375.946,0.251c10.439,0,21.746,5.688,23.689,19.155c-4.395,0-8.281,0-12.674,0
		c-1.801-5.113-5.617-7.417-11.018-7.417c-7.561,0-12.529,5.688-12.529,14.041c0,7.418,4.896,13.897,12.529,13.969
		c5.473,0,9.865-2.735,11.232-8.137c4.32,0,8.281,0,12.674,0c-1.871,14.258-13.178,19.875-23.906,19.875
		c-12.816,0.07-25.777-8.57-25.85-25.707C350.167,8.891,363.127,0.251,375.946,0.251z"/>
	<path fill="#FFFFFF" d="M441.176,12.348c-7.488,0-11.23,0-18.648,0v7.128h17.139c0,3.816,0,7.633,0,11.449h-17.139
		c0,2.951,0,5.833,0,8.855c7.418,0,11.736,0,19.297,0c0,3.746,0,7.633,0,11.449c-11.809,0-20.449,0-32.113,0
		c0-16.851,0-33.699,0-50.405c11.664,0,19.658,0,31.467,0C441.176,4.571,441.176,8.46,441.176,12.348z"/>
</g>
</svg>
