<?xml version="1.0" encoding="utf-8"?>
<!-- Generator: Adobe Illustrator 16.0.0, SVG Export Plug-In . SVG Version: 6.00 Build 0)  -->
<!DOCTYPE svg PUBLIC "-//W3C//DTD SVG 1.1//EN" "http://www.w3.org/Graphics/SVG/1.1/DTD/svg11.dtd">
<svg version="1.1" id="Layer_1" xmlns="http://www.w3.org/2000/svg" xmlns:xlink="http://www.w3.org/1999/xlink" x="0px" y="0px"
	 width="435.235px" height="79.126px" viewBox="0 0 435.235 79.126" enable-background="new 0 0 435.235 79.126"
	 xml:space="preserve">
<g>
	<path d="M25.418,61.199H6.409V10.795h19.009C58.253,10.939,58.253,61.055,25.418,61.199z M19.298,49.462h6.12
		c16.058,0,16.058-26.931,0-26.931h-6.12V49.462z"/>
	<path d="M91.299,22.316c-7.489,0-11.233,0-18.65,0v7.128h17.138c0,3.816,0,7.633,0,11.449H72.649c0,2.952,0,5.833,0,8.856
		c7.417,0,11.737,0,19.298,0c0,3.745,0,7.633,0,11.449c-11.809,0-20.45,0-32.115,0c0-16.85,0-33.699,0-50.404
		c11.665,0,19.658,0,31.467,0C91.299,14.539,91.299,18.428,91.299,22.316z"/>
	<path d="M134.498,22.316c-7.489,0-11.233,0-18.65,0v7.128h17.138c0,3.816,0,7.633,0,11.449h-17.138c0,2.952,0,5.833,0,8.856
		c7.417,0,11.737,0,19.298,0c0,3.745,0,7.633,0,11.449c-11.809,0-20.45,0-32.115,0c0-16.85,0-33.699,0-50.404
		c11.665,0,19.658,0,31.467,0C134.498,14.539,134.498,18.428,134.498,22.316z"/>
	<path d="M146.23,61.199c0-16.777,0-33.555,0-50.404c7.272,0,14.761,0,22.178,0c24.122,0.072,24.122,37.515,0,37.515h-9.289v12.889
		C154.799,61.199,150.479,61.199,146.23,61.199z M168.336,22.316c-3.024-0.072-6.265,0-9.217,0c0,4.104,0,10.297,0,14.401h9.217
		C175.393,36.717,175.825,22.388,168.336,22.316z"/>
	<path d="M220.895,46.15c0-3.528-4.176-4.104-9.217-4.393c-10.945-0.792-18.146-4.536-18.29-15.481
		c-0.432-21.746,38.74-21.746,38.452,0c-4.537,0-7.849,0-12.241,0c0-6.697-13.537-6.121-13.969-0.144
		c-0.288,3.816,3.457,4.608,7.993,5.112c10.009,1.08,19.802,2.376,19.802,14.978c0,21.169-41.043,21.746-40.755-0.432
		c4.32,0,8.064,0,12.457,0C205.126,52.198,220.895,52.054,220.895,46.15z"/>
	<path d="M242.853,61.199c0-16.777,0-33.555,0-50.404c7.272,0,14.761,0,22.178,0c24.122,0.072,24.122,37.515,0,37.515h-9.289v12.889
		C251.421,61.199,247.101,61.199,242.853,61.199z M264.959,22.316c-3.024-0.072-6.265,0-9.217,0c0,4.104,0,10.297,0,14.401h9.217
		C272.016,36.717,272.447,22.388,264.959,22.316z"/>
	<path d="M319.679,54.863h-19.874l-2.953,6.336h-12.601v-1.872l22.682-49.18h5.544l22.754,49.18v1.872h-12.601L319.679,54.863z
		 M309.67,30.524l-5.617,13.25h11.377L309.67,30.524z"/>
	<path d="M364.678,10.219c10.441,0,21.746,5.688,23.69,19.154c-4.393,0-8.281,0-12.673,0c-1.8-5.112-5.617-7.417-11.017-7.417
		c-7.561,0-12.529,5.688-12.529,14.041c0,7.417,4.896,13.897,12.529,13.969c5.473,0,9.865-2.736,11.233-8.137
		c4.321,0,8.281,0,12.673,0c-1.872,14.257-13.177,19.874-23.906,19.874c-12.817,0.072-25.778-8.569-25.85-25.706
		C338.9,18.859,351.861,10.219,364.678,10.219z"/>
	<path d="M429.911,22.316c-7.489,0-11.233,0-18.65,0v7.128h17.138c0,3.816,0,7.633,0,11.449h-17.138c0,2.952,0,5.833,0,8.856
		c7.417,0,11.737,0,19.297,0c0,3.745,0,7.633,0,11.449c-11.809,0-20.449,0-32.114,0c0-16.85,0-33.699,0-50.404
		c11.665,0,19.658,0,31.467,0C429.911,14.539,429.911,18.428,429.911,22.316z"/>
</g>
<g>
</g>
<g>
</g>
<g>
</g>
<g>
</g>
<g>
</g>
<g>
</g>
</svg>
