<?xml version="1.0" encoding="utf-8"?>
<!-- Generator: Adobe Illustrator 16.0.0, SVG Export Plug-In . SVG Version: 6.00 Build 0)  -->
<!DOCTYPE svg PUBLIC "-//W3C//DTD SVG 1.1//EN" "http://www.w3.org/Graphics/SVG/1.1/DTD/svg11.dtd">
<svg version="1.1" id="Layer_1" xmlns="http://www.w3.org/2000/svg" xmlns:xlink="http://www.w3.org/1999/xlink" x="0px" y="0px"
	 width="441.825px" height="52.294px" viewBox="6.409 9.967 441.825 52.294" enable-background="new 6.409 9.967 441.825 52.294"
	 xml:space="preserve">
<g>
	<path d="M25.418,61.2H6.409V10.795h19.009C58.253,10.939,58.253,61.055,25.418,61.2z M19.298,49.461h6.12
		c16.058,0,16.058-26.93,0-26.93h-6.12V49.461z"/>
	<path d="M91.299,22.316c-7.489,0-11.233,0-18.65,0v7.128h17.139c0,3.816,0,7.633,0,11.449H72.649c0,2.951,0,5.833,0,8.855
		c7.417,0,11.737,0,19.298,0c0,3.746,0,7.633,0,11.449c-11.809,0-20.449,0-32.114,0c0-16.85,0-33.699,0-50.404
		c11.665,0,19.658,0,31.467,0C91.299,14.539,91.299,18.428,91.299,22.316z"/>
	<path d="M134.498,22.316c-7.489,0-11.233,0-18.65,0v7.128h17.138c0,3.816,0,7.633,0,11.449h-17.138c0,2.951,0,5.833,0,8.855
		c7.417,0,11.737,0,19.298,0c0,3.746,0,7.633,0,11.449c-11.809,0-20.45,0-32.115,0c0-16.85,0-33.699,0-50.404
		c11.665,0,19.658,0,31.468,0C134.498,14.539,134.498,18.428,134.498,22.316z"/>
	<path d="M146.23,61.2c0-16.777,0-33.556,0-50.405c7.272,0,14.762,0,22.179,0c24.121,0.072,24.121,37.515,0,37.515h-9.289V61.2
		C154.799,61.2,150.479,61.2,146.23,61.2z M168.336,22.316c-3.024-0.072-6.266,0-9.217,0c0,4.104,0,10.297,0,14.401h9.217
		C175.393,36.717,175.825,22.388,168.336,22.316z"/>
	<path d="M238.572,46.15c0-3.528-4.176-4.104-9.217-4.394c-10.945-0.791-18.146-4.535-18.29-15.48
		c-0.432-21.746,38.74-21.746,38.452,0c-4.537,0-7.849,0-12.241,0c0-6.697-13.537-6.121-13.969-0.144
		c-0.288,3.816,3.457,4.608,7.993,5.112c10.009,1.08,19.802,2.376,19.802,14.978c0,21.169-41.043,21.745-40.755-0.433
		c4.319,0,8.063,0,12.457,0C222.803,52.198,238.572,52.054,238.572,46.15z"/>
	<path d="M260.53,61.2c0-16.777,0-33.556,0-50.405c7.272,0,14.761,0,22.178,0c24.122,0.072,24.122,37.515,0,37.515h-9.288V61.2
		C269.098,61.2,264.778,61.2,260.53,61.2z M282.636,22.316c-3.024-0.072-6.266,0-9.217,0c0,4.104,0,10.297,0,14.401h9.217
		C289.693,36.717,290.123,22.388,282.636,22.316z"/>
	<path d="M337.356,54.863h-19.874l-2.953,6.337h-12.601v-1.873l22.682-49.18h5.544l22.754,49.18V61.2h-12.601L337.356,54.863z
		 M327.347,30.524l-5.617,13.25h11.377L327.347,30.524z"/>
	<path d="M382.355,10.219c10.441,0,21.746,5.688,23.69,19.154c-4.394,0-8.281,0-12.674,0c-1.8-5.112-5.616-7.417-11.017-7.417
		c-7.561,0-12.529,5.688-12.529,14.041c0,7.417,4.896,13.897,12.529,13.968c5.473,0,9.865-2.735,11.233-8.137
		c4.32,0,8.28,0,12.673,0c-1.872,14.258-13.178,19.875-23.906,19.875c-12.817,0.071-25.778-8.57-25.85-25.707
		C356.576,18.859,369.537,10.219,382.355,10.219z"/>
	<path d="M447.587,22.316c-7.488,0-11.232,0-18.649,0v7.128h17.138c0,3.816,0,7.633,0,11.449h-17.138c0,2.951,0,5.833,0,8.855
		c7.417,0,11.737,0,19.297,0c0,3.746,0,7.633,0,11.449c-11.809,0-20.449,0-32.114,0c0-16.85,0-33.699,0-50.404
		c11.665,0,19.658,0,31.467,0C447.587,14.539,447.587,18.428,447.587,22.316z"/>
</g>
</svg>
